HIERARCHY
ROOT Hips
{
	OFFSET 55.670502 -15.406714 85.542801
	CHANNELS 6 Xposition Yposition Zposition Xrotation Yrotation Zrotation
	JOINT spine
	{
		OFFSET 0.000000 -0.367607 6.392601
		CHANNELS 3 Xrotation Yrotation Zrotation
		JOINT spine1
		{
			OFFSET 0.000000 -0.000001 9.176109
			CHANNELS 3 Xrotation Yrotation Zrotation
			JOINT spine2
			{
				OFFSET 0.000000 -0.000002 8.792381
				CHANNELS 3 Xrotation Yrotation Zrotation
				JOINT Neck
				{
					OFFSET 0.000000 -1.076242 22.573708
					CHANNELS 3 Xrotation Yrotation Zrotation
					JOINT Head
					{
						OFFSET 0.000000 -0.000002 6.820114
						CHANNELS 3 Xrotation Yrotation Zrotation
						End Site
						{
							OFFSET 0.000000 5.444267 16.508499
						}
					}
				}
				JOINT RightShoulder
				{
					OFFSET -3.702209 0.515507 9.495087
					CHANNELS 3 Xrotation Yrotation Zrotation
					JOINT RightArm
					{
						OFFSET 0.000000 -0.000003 12.453697
						CHANNELS 3 Xrotation Yrotation Zrotation
						JOINT RightArmRoll
						{
							OFFSET 0.000000 -0.000001 6.286865
							CHANNELS 3 Xrotation Yrotation Zrotation
							JOINT RightForeArm
							{
								OFFSET 0.000000 -0.000003 18.311401
								CHANNELS 3 Xrotation Yrotation Zrotation
								JOINT RightForeArmRoll
								{
									OFFSET 0.000000 -0.000001 7.054825
									CHANNELS 3 Xrotation Yrotation Zrotation
									JOINT RightHand
									{
										OFFSET 0.000000 -0.000002 14.157501
										CHANNELS 3 Xrotation Yrotation Zrotation
										End Site
										{
											OFFSET 0.000000 0.000000 0.100006
										}
									}
								}
							}
						}
					}
				}
				JOINT LeftShoulder
				{
					OFFSET 3.702209 0.515507 9.495087
					CHANNELS 3 Xrotation Yrotation Zrotation
					JOINT LeftArm
					{
						OFFSET 0.000000 -0.000003 12.453697
						CHANNELS 3 Xrotation Yrotation Zrotation
						JOINT LeftArmRoll
						{
							OFFSET 0.000000 -0.000001 6.286865
							CHANNELS 3 Xrotation Yrotation Zrotation
							JOINT LeftForeArm
							{
								OFFSET 0.000000 -0.000003 18.311401
								CHANNELS 3 Xrotation Yrotation Zrotation
								JOINT LeftForeArmRoll
								{
									OFFSET 0.000000 -0.000001 7.054825
									CHANNELS 3 Xrotation Yrotation Zrotation
									JOINT LeftHand
									{
										OFFSET 0.000000 -0.000002 14.157501
										CHANNELS 3 Xrotation Yrotation Zrotation
										End Site
										{
											OFFSET 0.000000 0.000000 0.100006
										}
									}
								}
							}
						}
					}
				}
			}
		}
	}
	JOINT RightUpLeg
	{
		OFFSET -5.666149 0.871611 -1.039032
		CHANNELS 3 Xrotation Yrotation Zrotation
		JOINT RightUpLegRoll
		{
			OFFSET 0.000000 -0.000003 16.600502
			CHANNELS 3 Xrotation Yrotation Zrotation
			JOINT RightLeg
			{
				OFFSET 0.000000 0.000003 -20.557198
				CHANNELS 3 Xrotation Yrotation Zrotation
				JOINT RightLegRoll
				{
					OFFSET 0.000000 -0.000003 20.624397
					CHANNELS 3 Xrotation Yrotation Zrotation
					JOINT RightFoot
					{
						OFFSET 0.000000 -0.000003 17.166405
						CHANNELS 3 Xrotation Yrotation Zrotation
						JOINT RightToeBase
						{
							OFFSET 0.000000 -0.000003 14.350204
							CHANNELS 3 Xrotation Yrotation Zrotation
							End Site
							{
								OFFSET 0.006081 0.801059 6.949707
							}
						}
					}
				}
			}
		}
	}
	JOINT LeftUpLeg
	{
		OFFSET 5.666149 0.871611 -1.039032
		CHANNELS 3 Xrotation Yrotation Zrotation
		JOINT LeftUpLegRoll
		{
			OFFSET 0.000000 -0.000003 16.600601
			CHANNELS 3 Xrotation Yrotation Zrotation
			JOINT LeftLeg
			{
				OFFSET 0.000000 -0.000004 20.557098
				CHANNELS 3 Xrotation Yrotation Zrotation
				JOINT LeftLegRoll
				{
					OFFSET 0.000000 -0.000003 20.815094
					CHANNELS 3 Xrotation Yrotation Zrotation
					JOINT LeftFoot
					{
						OFFSET 0.000000 -0.000003 16.975708
						CHANNELS 3 Xrotation Yrotation Zrotation
						JOINT LeftToeBase
						{
							OFFSET 0.000000 -0.000003 14.350204
							CHANNELS 3 Xrotation Yrotation Zrotation
							End Site
							{
								OFFSET -0.027260 0.801060 6.949707
							}
						}
					}
				}
			}
		}
	}
}
MOTION
Frames: 8
Frame Time: 0.041667
56.702805 -15.899221 85.567696 -4.709527 1.966284 -26.852744 -0.632194 0.279178 -0.051878 2.723270 0.558356 -0.103826 4.368368 0.557071 -0.110504 8.844709 0.077479 5.825244 7.316301 4.393915 5.201371 1.188194 -60.649833 1.185714 -42.816557 -115.851360 -37.473792 -0.000002 0.000000 -0.000003 5.322929 -14.437012 0.350177 0.000002 -0.000000 -2.999997 -5.000230 -7.998763 0.000179 -1.860486 56.134726 1.856877 -38.049048 116.728520 33.819139 0.000000 0.000000 0.000001 3.689262 9.255987 0.276849 -0.000001 -0.000003 3.000000 -5.000225 7.998843 -0.000129 5.132656 -172.904272 3.166509 -179.999991 0.000005 -1.235998 170.745112 -2.799140 -0.657928 -0.000004 -0.000004 0.230096 72.464134 6.847578 1.984968 25.776584 -7.354069 0.470214 0.269332 171.700096 -1.134929 -0.000005 -0.000004 -1.079270 -7.085116 0.581705 0.691117 0.000001 0.000003 0.099562 68.551638 -6.151425 -4.056096 25.456948 7.355614 -0.000001 
56.676006 -15.922223 85.564896 -4.720959 1.979118 -26.862188 -0.628246 0.276761 -0.055100 2.732288 0.553515 -0.110265 4.377385 0.552153 -0.116886 8.823933 0.126181 5.843600 7.326253 4.359524 5.218301 1.278042 -60.636015 1.292083 -42.816106 -115.863627 -37.465425 -0.000001 0.000001 -0.000002 5.339325 -14.426478 0.350312 0.000000 -0.000001 -3.000001 -5.000231 -7.998762 0.000178 -1.947666 56.151088 1.962872 -38.154912 116.768914 33.933336 0.000000 -0.000000 -0.000001 3.608964 9.257219 0.282623 -0.000004 -0.000002 2.999999 -5.000221 7.998845 -0.000132 5.148285 -172.914408 3.162639 -179.999991 0.000005 -1.236001 170.749456 -2.796208 -0.658232 -0.000002 -0.000004 0.230117 72.457891 6.847580 1.984951 25.776886 -7.354067 0.471011 0.288570 171.691094 -1.147233 -0.000006 -0.000005 -1.079134 -7.082901 0.585621 0.691130 0.000001 0.000003 0.099560 68.552252 -6.151379 -4.056154 25.456955 7.355610 0.000002 
56.688606 -15.920019 85.565689 -4.734042 1.993272 -26.872566 -0.623734 0.274219 -0.058449 2.742486 0.548421 -0.116962 4.387582 0.546979 -0.123516 8.800524 0.177925 5.863060 7.337804 4.322334 5.236271 1.371795 -60.620886 1.403138 -42.816882 -115.876345 -37.456662 0.000000 0.000000 -0.000002 5.354827 -14.414769 0.350150 0.000000 -0.000000 -3.000001 -5.000230 -7.998763 0.000177 -2.039907 56.167897 2.074980 -38.264509 116.811849 34.050354 0.000000 0.000000 0.000000 3.524371 9.257277 0.288792 -0.000001 -0.000003 2.999998 -5.000224 7.998843 -0.000129 5.166242 -172.923574 3.158882 -179.999991 0.000005 -1.236001 170.754593 -2.791314 -0.657178 -0.000003 -0.000004 0.230120 72.450999 6.847580 1.984973 25.777190 -7.354066 0.471826 0.310525 171.680111 -1.161011 -0.000006 -0.000004 -1.079009 -7.080326 0.590153 0.691116 0.000000 0.000003 0.099563 68.552717 -6.151528 -4.055854 25.456953 7.355613 0.000002 
56.661407 -15.882221 85.575989 -4.748252 2.008359 -26.883614 -0.618826 0.271594 -0.061886 2.753495 0.543149 -0.123838 4.398587 0.541626 -0.130326 8.775272 0.231791 5.883311 7.350466 4.283173 5.254999 1.468252 -60.604958 1.517446 -42.817476 -115.890238 -37.446386 -0.000002 -0.000002 -0.000003 5.369683 -14.402081 0.349757 -0.000002 0.000000 -2.999996 -5.000233 -7.998764 0.000178 -2.135706 56.184993 2.191392 -38.375988 116.856750 34.168616 0.000001 -0.000000 -0.000002 3.436768 9.256514 0.295237 -0.000002 -0.000002 3.000000 -5.000224 7.998843 -0.000131 5.185790 -172.933751 3.155034 -179.999991 0.000005 -1.236002 170.760207 -2.787421 -0.657264 -0.000003 -0.000004 0.230136 72.443780 6.847554 1.985010 25.777494 -7.354072 0.472677 0.334382 171.668130 -1.175844 -0.000005 -0.000003 -1.078899 -7.077481 0.595119 0.691076 0.000001 0.000003 0.099564 68.553284 -6.151726 -4.055262 25.456952 7.355613 0.000002 
56.667999 -15.895517 85.571190 -4.763128 2.023971 -26.895091 -0.613696 0.268915 -0.065373 2.764972 0.537775 -0.130813 4.410065 0.536169 -0.137235 8.748971 0.286859 5.904031 7.363751 4.242895 5.274153 1.566189 -60.588539 1.633546 -42.818603 -115.904335 -37.435963 0.000001 0.000001 -0.000000 5.384182 -14.388804 0.349228 0.000001 0.000000 -2.999999 -5.000232 -7.998764 0.000179 -2.233569 56.202174 2.310315 -38.490356 116.901570 34.289599 -0.000001 -0.000000 0.000001 3.347436 9.255291 0.301840 -0.000002 -0.000003 2.999997 -5.000224 7.998843 -0.000127 5.206259 -172.944939 3.151086 -179.999991 0.000005 -1.236001 170.766163 -2.782532 -0.657167 -0.000003 -0.000004 0.230140 72.436260 6.847579 1.984977 25.777796 -7.354067 0.473521 0.359325 171.657161 -1.191276 -0.000006 -0.000004 -1.078810 -7.074489 0.600333 0.691023 0.000001 0.000003 0.099560 68.553878 -6.151960 -4.054672 25.456952 7.355614 0.000002 
56.685905 -15.908823 85.568687 -4.778156 2.039725 -26.906738 -0.608504 0.266225 -0.068874 2.776570 0.532373 -0.137809 4.421661 0.530683 -0.144163 8.722417 0.342213 5.924927 7.377207 4.202339 5.293433 1.664421 -60.571750 1.749999 -42.819747 -115.918419 -37.425386 -0.000000 0.000001 -0.000001 5.398582 -14.375528 0.348667 -0.000001 -0.000001 -3.000000 -5.000232 -7.998763 0.000177 -2.332025 56.219267 2.429952 -38.603690 116.947428 34.409325 0.000001 0.000000 -0.000001 3.257673 9.253937 0.308476 -0.000002 -0.000003 2.999998 -5.000223 7.998843 -0.000129 5.226973 -172.955129 3.147235 -179.999991 0.000005 -1.235997 170.772174 -2.778628 -0.657237 -0.000003 -0.000004 0.230146 72.428719 6.847574 1.984937 25.778100 -7.354064 0.474369 0.384543 171.645195 -1.206868 -0.000005 -0.000004 -1.078719 -7.071455 0.605609 0.690967 0.000001 0.000003 0.099563 68.554458 -6.152194 -4.053983 25.456953 7.355613 -0.000000 
56.680809 -15.902721 85.569389 -4.792848 2.055215 -26.918117 -0.603427 0.263558 -0.072354 2.787929 0.527019 -0.144750 4.433028 0.525246 -0.151038 8.696402 0.396940 5.945644 7.390345 4.162356 5.312528 1.761753 -60.555194 1.865382 -42.820703 -115.932434 -37.414957 -0.000001 0.000000 -0.000003 5.413154 -14.362445 0.348157 0.000001 -0.000001 -2.999999 -5.000231 -7.998764 0.000175 -2.429568 56.236093 2.548479 -38.715773 116.993095 34.527945 0.000003 0.000000 0.000001 3.168786 9.252832 0.315033 -0.000003 -0.000002 2.999997 -5.000227 7.998845 -0.000126 5.247199 -172.966304 3.143283 -179.999991 0.000005 -1.236000 170.778020 -2.773739 -0.657156 -0.000003 -0.000004 0.230157 72.421295 6.847556 1.984989 25.778298 -7.354073 0.475206 0.409220 171.633215 -1.222163 -0.000006 -0.000003 -1.078631 -7.068502 0.610761 0.690916 0.000001 0.000003 0.099563 68.554943 -6.152456 -4.053408 25.456955 7.355610 -0.000001 
56.685207 -15.898621 85.567589 -4.806723 2.070060 -26.928968 -0.598631 0.260954 -0.075762 2.798707 0.521787 -0.151568 4.443805 0.519933 -0.157791 8.671710 0.450123 5.965877 7.402685 4.123790 5.331115 1.857011 -60.539013 1.978281 -42.822359 -115.945480 -37.406228 0.000000 0.000001 -0.000002 5.428199 -14.350050 0.347798 0.000001 -0.000000 -3.000000 -5.000230 -7.998764 0.000176 -2.524684 56.252502 2.664088 -38.826053 117.037204 34.645315 0.000000 0.000000 0.000001 3.082024 9.252315 0.321394 -0.000003 -0.000003 3.000001 -5.000222 7.998845 -0.000130 5.266303 -172.976481 3.139398 -179.999991 0.000005 -1.235999 170.783525 -2.769832 -0.657251 -0.000003 -0.000003 0.230164 72.414192 6.847556 1.985025 25.778611 -7.354068 0.476041 0.432540 171.622232 -1.236741 -0.000005 -0.000005 -1.078520 -7.065738 0.615603 0.690881 0.000001 0.000003 0.099561 68.555517 -6.152614 -4.052905 25.456955 7.355612 0.000000 
